<?xml version="1.0" standalone="no"?>
<!DOCTYPE svg PUBLIC "-//W3C//DTD SVG 20010904//EN"
 "http://www.w3.org/TR/2001/REC-SVG-20010904/DTD/svg10.dtd">
<svg version="1.0" xmlns="http://www.w3.org/2000/svg"
 width="225.000000pt" height="225.000000pt" viewBox="0 0 225.000000 225.000000"
 preserveAspectRatio="xMidYMid meet">

<g transform="translate(0.000000,225.000000) scale(0.100000,-0.100000)"
fill="#000000" stroke="none">
<path d="M988 2240 c-262 -33 -491 -150 -678 -346 -146 -154 -237 -327 -287
-547 -22 -98 -22 -346 0 -444 53 -235 144 -401 311 -569 168 -167 334 -258
569 -311 98 -22 346 -22 444 0 235 53 401 144 569 311 167 168 258 334 311
569 22 98 22 346 0 444 -53 235 -144 401 -311 569 -168 167 -341 262 -567 309
-88 19 -273 26 -361 15z m568 -514 c38 -32 39 -86 1 -124 l-27 -27 -405 0
-405 0 -27 27 c-38 38 -37 92 1 124 l27 24 404 0 404 0 27 -24z m229 -1 c17
-16 25 -35 25 -60 0 -80 -92 -116 -149 -60 -18 17 -25 35 -25 61 0 74 96 113
149 59z m-612 -265 c52 -41 40 -124 -21 -149 -20 -8 -108 -11 -305 -9 -264 3
-277 4 -297 24 -11 11 -23 37 -27 57 -5 31 -1 40 25 67 l30 30 285 0 c270 0
286 -1 310 -20z m366 -265 c40 -20 57 -66 41 -105 -25 -61 -16 -60 -455 -60
-439 0 -430 -1 -455 60 -16 38 1 84 39 105 39 21 789 22 830 0z m130 -266 c33
-12 61 -52 61 -89 0 -12 -13 -35 -29 -51 l-29 -29 -287 0 -287 0 -29 29 c-32
32 -36 55 -17 97 22 49 51 53 329 54 163 0 268 -4 288 -11z m-1083 -293 c60
-51 21 -146 -58 -146 -52 0 -88 35 -88 85 0 76 87 112 146 61z m970 0 c37 -31
38 -84 4 -121 l-23 -25 -412 0 -412 0 -23 25 c-34 37 -33 90 4 121 l27 24 404
0 404 0 27 -24z"/>
</g>
</svg>
