<svg version="1.1" id="Layer_1" xmlns="http://www.w3.org/2000/svg" xmlns:xlink="http://www.w3.org/1999/xlink" x="0px" y="0px"
	 width="100%" viewBox="0 0 225 225" enable-background="new 0 0 225 225" xml:space="preserve">
<path fill="#283147" opacity="1.000000" stroke="none" 
	d="
M101.000000,1.000000 
	C108.687576,1.000000 116.375153,1.000000 124.673988,1.359674 
	C134.858765,4.032982 144.655472,5.681184 153.958420,8.801500 
	C172.220276,14.926746 186.758316,26.926390 199.325989,41.055046 
	C210.632690,53.766060 218.282166,68.731308 222.317032,85.388977 
	C223.575653,90.585152 224.774048,95.795914 226.000000,101.000000 
	C226.000000,109.020897 226.000000,117.041801 225.629181,125.689301 
	C219.840149,172.514008 187.210144,210.169098 142.101486,222.156174 
	C136.458969,223.655624 130.703262,224.729141 125.000000,226.000000 
	C116.979103,226.000000 108.958199,226.000000 100.318329,225.633881 
	C97.910393,224.907669 96.122116,224.544128 94.332375,224.187943 
	C50.937531,215.551468 21.744591,190.348572 6.899840,148.737900 
	C4.279145,141.391937 2.934124,133.590897 1.000000,126.000000 
	C1.000000,117.979103 1.000000,109.958199 1.370801,101.310791 
	C3.462084,86.563202 7.223266,72.984123 14.280367,60.633862 
	C30.189714,32.791748 52.351562,12.747517 84.643196,5.711253 
	C90.175003,4.505886 95.551666,2.588478 101.000000,1.000000 
M61.917282,95.886436 
	C79.282372,95.933884 96.647453,95.981323 114.243042,96.235420 
	C114.558952,96.345207 114.800934,96.231415 115.456833,95.424149 
	C120.639084,92.644447 122.739265,89.013878 121.595299,84.812668 
	C120.377975,80.342056 116.956612,78.030388 111.301262,78.020729 
	C95.313377,77.993423 79.319778,77.793243 63.342484,78.205574 
	C60.318954,78.283600 56.478527,80.134651 54.559532,82.448524 
	C50.856190,86.913895 53.310654,92.110947 60.217037,96.166931 
	C60.217037,96.166931 60.617664,96.287888 60.617664,96.287888 
	C60.617664,96.287888 60.987629,96.028793 61.917282,95.886436 
M150.093048,105.084457 
	C125.388130,105.031982 100.683220,104.979500 75.765495,104.708389 
	C75.465431,104.562195 75.215424,104.644547 74.379807,105.253181 
	C70.278801,106.626625 67.528839,109.321495 67.305496,113.728516 
	C67.066551,118.443214 70.122070,121.147316 74.696510,123.546608 
	C75.503448,123.695511 76.310249,123.973686 77.117348,123.974533 
	C101.149353,123.999542 125.181435,124.011154 149.213348,123.959038 
	C150.465271,123.956322 151.715927,123.373665 153.541763,122.674263 
	C157.455627,120.874252 159.966965,117.955315 159.678131,113.524712 
	C159.372650,108.838570 156.149445,106.380089 151.778687,104.729279 
	C151.487854,104.557281 151.235519,104.623199 150.093048,105.084457 
M153.094833,160.039612 
	C152.437836,159.934891 151.780975,159.739502 151.123825,159.738541 
	C126.331551,159.702042 101.538940,159.611053 76.747200,159.717407 
	C71.117676,159.741547 67.225090,163.700180 67.228401,168.559937 
	C67.231895,173.698761 71.477135,177.533920 77.719566,177.555069 
	C101.514458,177.635666 125.309776,177.583755 149.104935,177.593399 
	C154.101974,177.595428 158.001968,175.778809 159.367737,170.674820 
	C160.700165,165.695496 158.191971,162.403549 153.094833,160.039612 
M146.386749,50.762074 
	C144.386749,50.762150 142.386765,50.762211 140.386765,50.762306 
	C119.386993,50.763294 98.387100,50.724628 77.387527,50.790348 
	C71.379311,50.809151 67.332016,54.432770 67.237801,59.503906 
	C67.144760,64.511696 71.220093,68.280396 77.135582,68.642578 
	C77.799980,68.683258 78.468552,68.659149 79.135193,68.659164 
	C102.134949,68.659737 125.134720,68.670357 148.134430,68.636902 
	C149.784119,68.634506 151.496399,68.533333 153.070740,68.090843 
	C157.471436,66.853920 159.704453,63.710419 159.694275,59.235115 
	C159.684647,54.993744 156.196823,51.448978 151.835114,50.909916 
	C150.354218,50.726894 148.841248,50.803593 146.386749,50.762074 
M113.323708,132.387527 
	C107.384521,134.257217 104.436127,137.975830 105.225243,142.601593 
	C106.051559,147.445404 109.774010,150.145920 115.912659,150.160172 
	C131.726700,150.196854 147.546127,150.382248 163.350494,149.989471 
	C166.415955,149.913269 170.204956,148.176376 172.200027,145.916458 
	C173.692612,144.225754 173.631012,140.218063 172.847534,137.678192 
	C171.583359,133.580093 167.760361,132.290787 163.623978,132.291290 
	C147.144043,132.293243 130.664124,132.302017 113.323708,132.387527 
M180.957138,64.087822 
	C183.202576,57.847237 181.167923,52.642620 175.890884,51.128426 
	C170.759766,49.656105 165.531815,52.796616 164.563965,58.089260 
	C163.817337,62.172237 165.542725,65.355019 169.032135,67.310425 
	C173.488373,69.807640 177.353577,68.471268 180.957138,64.087822 
M55.154034,159.896317 
	C48.924343,159.961838 45.380196,162.652206 44.929905,167.657440 
	C44.494942,172.492310 47.587372,176.499619 52.355354,177.279678 
	C56.813343,178.009018 60.914509,175.324554 62.201519,170.834778 
	C63.548481,166.135834 61.539730,162.658051 55.154034,159.896317 
z"/>
<path fill="#FDFDFD" opacity="1.000000" stroke="none" 
	d="
M226.000000,100.531342 
	C224.774048,95.795914 223.575653,90.585152 222.317032,85.388977 
	C218.282166,68.731308 210.632690,53.766060 199.325989,41.055046 
	C186.758316,26.926390 172.220276,14.926746 153.958420,8.801500 
	C144.655472,5.681184 134.858765,4.032982 125.142624,1.359674 
	C158.593231,1.000000 192.186478,1.000000 226.000000,1.000000 
	C226.000000,34.020569 226.000000,67.041626 226.000000,100.531342 
z"/>
<path fill="#FEFEFE" opacity="1.000000" stroke="none" 
	d="
M100.531342,1.000000 
	C95.551666,2.588478 90.175003,4.505886 84.643196,5.711253 
	C52.351562,12.747517 30.189714,32.791748 14.280367,60.633862 
	C7.223266,72.984123 3.462084,86.563202 1.370801,100.842133 
	C1.000000,67.739731 1.000000,34.479462 1.000000,1.000000 
	C34.020573,1.000000 67.041626,1.000000 100.531342,1.000000 
z"/>
<path fill="#FEFEFE" opacity="1.000000" stroke="none" 
	d="
M125.468658,226.000000 
	C130.703262,224.729141 136.458969,223.655624 142.101486,222.156174 
	C187.210144,210.169098 219.840149,172.514008 225.629181,126.157959 
	C226.000000,159.260635 226.000000,192.521255 226.000000,226.000000 
	C192.646088,226.000000 159.291702,226.000000 125.468658,226.000000 
z"/>
<path fill="#FEFEFE" opacity="1.000000" stroke="none" 
	d="
M1.000000,126.468658 
	C2.934124,133.590897 4.279145,141.391937 6.899840,148.737900 
	C21.744591,190.348572 50.937531,215.551468 94.332375,224.187943 
	C96.122116,224.544128 97.910393,224.907669 99.849678,225.633881 
	C67.072693,226.000000 34.145393,226.000000 1.000000,226.000000 
	C1.000000,192.979431 1.000000,159.958374 1.000000,126.468658 
z"/>
<path fill="#03F0B2" opacity="1.000000" stroke="none" 
	d="
M153.484100,160.132019 
	C158.191971,162.403549 160.700165,165.695496 159.367737,170.674820 
	C158.001968,175.778809 154.101974,177.595428 149.104935,177.593399 
	C125.309776,177.583755 101.514458,177.635666 77.719566,177.555069 
	C71.477135,177.533920 67.231895,173.698761 67.228401,168.559937 
	C67.225090,163.700180 71.117676,159.741547 76.747200,159.717407 
	C101.538940,159.611053 126.331551,159.702042 151.123825,159.738541 
	C151.780975,159.739502 152.437836,159.934891 153.484100,160.132019 
z"/>
<path fill="#03F0B3" opacity="1.000000" stroke="none" 
	d="
M146.864838,50.761841 
	C148.841248,50.803593 150.354218,50.726894 151.835114,50.909916 
	C156.196823,51.448978 159.684647,54.993744 159.694275,59.235115 
	C159.704453,63.710419 157.471436,66.853920 153.070740,68.090843 
	C151.496399,68.533333 149.784119,68.634506 148.134430,68.636902 
	C125.134720,68.670357 102.134949,68.659737 79.135193,68.659164 
	C78.468552,68.659149 77.799980,68.683258 77.135582,68.642578 
	C71.220093,68.280396 67.144760,64.511696 67.237801,59.503906 
	C67.332016,54.432770 71.379311,50.809151 77.387527,50.790348 
	C98.387100,50.724628 119.386993,50.763294 140.386765,50.762306 
	C142.386765,50.762211 144.386749,50.762150 146.864838,50.761841 
z"/>
<path fill="#03F2B4" opacity="1.000000" stroke="none" 
	d="
M75.978302,104.927025 
	C100.683220,104.979500 125.388130,105.031982 150.796661,105.059364 
	C151.500290,105.034271 151.984451,104.955437 151.984451,104.955437 
	C156.149445,106.380089 159.372650,108.838570 159.678131,113.524712 
	C159.966965,117.955315 157.455627,120.874252 152.789215,122.836746 
	C126.035408,123.019829 100.034134,123.040413 74.032860,123.061005 
	C70.122070,121.147316 67.066551,118.443214 67.305496,113.728516 
	C67.528839,109.321495 70.278801,106.626625 74.939713,105.143723 
	C75.499611,105.034271 75.978302,104.927025 75.978302,104.927025 
z"/>
<path fill="#03F2B3" opacity="1.000000" stroke="none" 
	d="
M114.012543,96.028763 
	C96.647453,95.981323 79.282372,95.933884 61.217224,95.876884 
	C60.517162,95.867332 60.022831,95.923363 60.022831,95.923363 
	C53.310654,92.110947 50.856190,86.913895 54.559532,82.448524 
	C56.478527,80.134651 60.318954,78.283600 63.342484,78.205574 
	C79.319778,77.793243 95.313377,77.993423 111.301262,78.020729 
	C116.956612,78.030388 120.377975,80.342056 121.595299,84.812668 
	C122.739265,89.013878 120.639084,92.644447 114.966835,95.642914 
	C114.476837,95.861687 114.012543,96.028763 114.012543,96.028763 
z"/>
<path fill="#03F1B3" opacity="1.000000" stroke="none" 
	d="
M113.753952,132.347900 
	C130.664124,132.302017 147.144043,132.293243 163.623978,132.291290 
	C167.760361,132.290787 171.583359,133.580093 172.847534,137.678192 
	C173.631012,140.218063 173.692612,144.225754 172.200027,145.916458 
	C170.204956,148.176376 166.415955,149.913269 163.350494,149.989471 
	C147.546127,150.382248 131.726700,150.196854 115.912659,150.160172 
	C109.774010,150.145920 106.051559,147.445404 105.225243,142.601593 
	C104.436127,137.975830 107.384521,134.257217 113.753952,132.347900 
z"/>
<path fill="#03F0B3" opacity="1.000000" stroke="none" 
	d="
M180.764404,64.426186 
	C177.353577,68.471268 173.488373,69.807640 169.032135,67.310425 
	C165.542725,65.355019 163.817337,62.172237 164.563965,58.089260 
	C165.531815,52.796616 170.759766,49.656105 175.890884,51.128426 
	C181.167923,52.642620 183.202576,57.847237 180.764404,64.426186 
z"/>
<path fill="#03F1B3" opacity="1.000000" stroke="none" 
	d="
M55.555923,159.960663 
	C61.539730,162.658051 63.548481,166.135834 62.201519,170.834778 
	C60.914509,175.324554 56.813343,178.009018 52.355354,177.279678 
	C47.587372,176.499619 44.494942,172.492310 44.929905,167.657440 
	C45.380196,162.652206 48.924343,159.961838 55.555923,159.960663 
z"/>
<path fill="#2A0B3A" opacity="1.000000" stroke="none" 
	d="
M74.364685,123.303802 
	C100.034134,123.040413 126.035408,123.019829 152.501923,123.030121 
	C151.715927,123.373665 150.465271,123.956322 149.213348,123.959038 
	C125.181435,124.011154 101.149353,123.999542 77.117348,123.974533 
	C76.310249,123.973686 75.503448,123.695511 74.364685,123.303802 
z"/>
<path fill="#29153C" opacity="1.000000" stroke="none" 
	d="
M151.881561,104.842361 
	C151.984451,104.955437 151.500290,105.034271 151.260971,104.980652 
	C151.235519,104.623199 151.487854,104.557281 151.881561,104.842361 
z"/>
<path fill="#29153C" opacity="1.000000" stroke="none" 
	d="
M75.871902,104.817703 
	C75.978302,104.927025 75.499611,105.034271 75.257553,104.994858 
	C75.215424,104.644547 75.465431,104.562195 75.871902,104.817703 
z"/>
<path fill="#29153C" opacity="1.000000" stroke="none" 
	d="
M114.127792,96.132095 
	C114.012543,96.028763 114.476837,95.861687 114.722916,95.877869 
	C114.800934,96.231415 114.558952,96.345207 114.127792,96.132095 
z"/>
<path fill="#29153C" opacity="1.000000" stroke="none" 
	d="
M60.119934,96.045151 
	C60.022831,95.923363 60.517162,95.867332 60.752396,95.948059 
	C60.987629,96.028793 60.617664,96.287888 60.617664,96.287888 
	C60.617664,96.287888 60.217037,96.166931 60.119934,96.045151 
z"/>
</svg>